<svg width="112" height="32" viewBox="0 0 112 32" fill="none" xmlns="http://www.w3.org/2000/svg">
<rect width="112" height="32" fill="white"/>
<path fill-rule="evenodd" clip-rule="evenodd" d="M8.92604 12.9411L2.68412 6.69921L4.21153 5.17181L10.5179 11.4782C10.5404 11.3636 10.5521 11.2453 10.5521 11.1242L10.5521 2.40003L12.7122 2.40002L12.7122 11.1242C12.7122 13.3267 10.9267 15.1123 8.72414 15.1122L0 15.1122L1.31099e-06 12.9522L8.72414 12.9522C8.79238 12.9522 8.85975 12.9484 8.92604 12.9411ZM8.72414 18.6019L1.31099e-06 18.6019L2.03931e-06 16.4418L8.72414 16.4418C10.9267 16.4418 12.7122 18.2274 12.7122 20.4299L12.7122 29.154L10.5521 29.1541L10.5521 20.4299C10.5521 20.3349 10.5449 20.2416 10.5309 20.1505L4.21153 26.4699L2.68413 24.9425L9.00354 18.6231C8.91244 18.6092 8.81914 18.6019 8.72414 18.6019ZM16.2019 2.40003L16.2019 11.1242C16.2019 11.2192 16.2091 11.3125 16.2231 11.4035L22.4548 5.17182L23.9822 6.69922L17.7505 12.931C17.8416 12.9449 17.9349 12.9522 18.0299 12.9522L26.754 12.9522V15.1123L18.0299 15.1123C15.8273 15.1123 14.0418 13.3267 14.0418 11.1242L14.0418 2.40003L16.2019 2.40003ZM14.0418 20.4299C14.0418 18.2274 15.8273 16.4418 18.0299 16.4418L26.754 16.4418V18.6019L18.0299 18.6019C17.9088 18.6019 17.7904 18.6137 17.6759 18.6362L23.9822 24.9425L22.4548 26.47L16.2129 20.228C16.2056 20.2943 16.2019 20.3617 16.2019 20.4299L16.2019 29.1541H14.0418L14.0418 20.4299Z" fill="black"/>
<path d="M37.0781 19.1229C37.0781 20.9465 38.5565 22.4248 40.3801 22.4248H45.8231V20.5447H39.0561V8.71582H37.0781V19.1229Z" fill="black"/>
<path fill-rule="evenodd" clip-rule="evenodd" d="M53.4355 19.8054H55.4918C55.2046 20.5888 54.6823 21.2938 53.9251 21.9205C53.1809 22.5341 52.2343 22.8409 51.0854 22.8409C49.6622 22.8409 48.4872 22.3709 47.5602 21.4309C46.6463 20.4908 46.1893 19.2635 46.1893 17.749C46.1893 16.2345 46.6463 15.0072 47.5602 14.0672C48.4872 13.1271 49.6622 12.6571 51.0854 12.6571C52.4171 12.6571 53.5334 13.1141 54.4343 14.028C55.3351 14.942 55.7856 16.0844 55.7856 17.4553C55.7856 17.5728 55.766 17.8078 55.7268 18.1603L55.6877 18.4345H48.1477C48.2522 19.2701 48.572 19.9359 49.1073 20.4321C49.6426 20.9282 50.302 21.1763 51.0854 21.1763C51.6337 21.1763 52.1168 21.0457 52.5346 20.7846C52.9654 20.5104 53.2657 20.184 53.4355 19.8054ZM48.1477 16.9657H53.9251C53.8206 16.1692 53.5138 15.5295 53.0046 15.0464C52.4954 14.5633 51.8557 14.3218 51.0854 14.3218C50.2759 14.3218 49.6231 14.5633 49.1269 15.0464C48.6308 15.5164 48.3044 16.1562 48.1477 16.9657Z" fill="black"/>
<path d="M56.0117 12.853H58.0681L60.7119 20.4908H61.1036L63.7475 12.853H65.8038L63.0267 20.7878V20.598C62.5798 22.9553 59.2043 22.9553 58.7574 20.598V20.6979L56.0117 12.853Z" fill="black"/>
<path fill-rule="evenodd" clip-rule="evenodd" d="M75.3218 19.8054H73.2654C73.0957 20.184 72.7954 20.5104 72.3646 20.7846C71.9468 21.0457 71.4637 21.1763 70.9153 21.1763C70.132 21.1763 69.4726 20.9282 68.9373 20.4321C68.402 19.9359 68.0821 19.2701 67.9777 18.4345H75.5176L75.5568 18.1603C75.596 17.8078 75.6156 17.5728 75.6156 17.4553C75.6156 16.0844 75.1651 14.942 74.2642 14.028C73.3634 13.1141 72.2471 12.6571 70.9153 12.6571C69.4922 12.6571 68.3171 13.1271 67.3902 14.0672C66.4762 15.0072 66.0193 16.2345 66.0193 17.749C66.0193 19.2635 66.4762 20.4908 67.3902 21.4309C68.3171 22.3709 69.4922 22.8409 70.9153 22.8409C72.0643 22.8409 73.0108 22.5341 73.755 21.9205C74.5123 21.2938 75.0345 20.5888 75.3218 19.8054ZM73.755 16.9657H67.9777C68.1344 16.1562 68.4608 15.5164 68.9569 15.0464C69.453 14.5633 70.1058 14.3218 70.9153 14.3218C71.6856 14.3218 72.3254 14.5633 72.8346 15.0464C73.3438 15.5295 73.6506 16.1692 73.755 16.9657Z" fill="black"/>
<path d="M77.208 12.853H78.9706L79.1664 13.8322H79.2643C79.4863 13.6102 79.7278 13.4144 79.989 13.2447C80.6157 12.853 81.3207 12.6571 82.1041 12.6571C83.2922 12.6571 84.2387 13.0292 84.9438 13.7734C85.6619 14.5046 86.0209 15.5034 86.0209 16.7698V22.6451H84.0625V16.7698C84.0625 16.1301 83.834 15.5817 83.377 15.1247C82.9331 14.6547 82.3782 14.4197 81.7124 14.4197C80.9943 14.4197 80.3872 14.6547 79.891 15.1247C79.408 15.5817 79.1664 16.1301 79.1664 16.7698V22.6451H77.208V12.853Z" fill="black"/>
<path d="M88.0027 12.853V18.7282C88.0027 19.9947 88.3553 21 89.0603 21.7442C89.7784 22.4754 90.7315 22.8409 91.9196 22.8409C92.703 22.8409 93.408 22.6451 94.0347 22.2534C94.2958 22.0837 94.5374 21.8878 94.7593 21.6659H94.8572L95.0531 22.6451H96.8157V12.853H94.8572V18.7282C94.8572 19.368 94.6092 19.9229 94.113 20.3929C93.63 20.8499 93.0294 21.0784 92.3113 21.0784C91.6454 21.0784 91.084 20.8499 90.627 20.3929C90.1831 19.9229 89.9612 19.368 89.9612 18.7282V12.853H88.0027Z" fill="black"/>
<path fill-rule="evenodd" clip-rule="evenodd" d="M105.65 19.8054H107.706C107.419 20.5888 106.897 21.2938 106.139 21.9205C105.395 22.5341 104.449 22.8409 103.3 22.8409C101.876 22.8409 100.701 22.3709 99.7744 21.4309C98.8605 20.4908 98.4035 19.2635 98.4035 17.749C98.4035 16.2345 98.8605 15.0072 99.7744 14.0672C100.701 13.1271 101.876 12.6571 103.3 12.6571C104.631 12.6571 105.748 13.1141 106.648 14.028C107.549 14.942 108 16.0844 108 17.4553C108 17.5728 107.98 17.8078 107.941 18.1603L107.902 18.4345H100.362C100.466 19.2701 100.786 19.9359 101.322 20.4321C101.857 20.9282 102.516 21.1763 103.3 21.1763C103.848 21.1763 104.331 21.0457 104.749 20.7846C105.18 20.5104 105.48 20.184 105.65 19.8054ZM100.362 16.9657H106.139C106.035 16.1692 105.728 15.5295 105.219 15.0464C104.71 14.5633 104.07 14.3218 103.3 14.3218C102.49 14.3218 101.837 14.5633 101.341 15.0464C100.845 15.5164 100.519 16.1562 100.362 16.9657Z" fill="black"/>
</svg>
